<svg viewBox="-76 0 512 512" xmlns="http://www.w3.org/2000/svg"><path d="m314.773438 318.398438-32.097657 193.601562h-205.199219l-6-36.101562-4.800781-29.699219-12.902343-78-6.898438-39.898438-1.5-9.902343zm0 0" fill="#3aaaff"/><path d="m314.773438 318.398438-32.097657 193.601562h-102.601562v-193.601562zm0 0" fill="#0095ff"/><path d="m192.675781 383.199219c-3.902343 6.601562-7.800781 13.199219-12.601562 19.5-27.898438 39.300781-68.699219 67.800781-106.5 72.902343-.898438 0-1.5.296876-2.097657.296876-3.601562.300781-6.601562.601562-9.601562.601562-16.800781 0-31.5-5.398438-41.699219-15.601562-28.5-28.5-16.5-85.800782 26.699219-132.597657l6.898438 39.898438c-21 30.601562-24 59.703125-12.296876 71.402343 6.597657 6.597657 16.796876 7.5 25.199219 6.597657.898438 0 1.800781-.300781 2.699219-.300781 28.199219-3.894532 70.5-29.699219 96.898438-77.097657l13.800781 7.5zm0 0" fill="#d3d3d8"/><path d="m192.675781 383.199219c-3.902343 6.601562-7.800781 13.199219-12.601562 19.5v-26.398438zm0 0" fill="#babac0"/><path d="m351.375 172.300781c-11.699219 11.699219-30.898438 11.699219-42.601562 0l-45.597657-45.902343c-19.199219 8.101562 4.5 3.300781-53.101562 21.902343v62.699219c0 16.5-13.5 30-30 30s-30-13.5-30-30v-62.699219c-58.199219-18.902343-33.597657-13.5-53.101563-21.902343l-45.597656 45.902343c-11.699219 11.699219-30.902344 11.699219-42.601562 0-11.699219-11.699219-11.699219-30.902343 0-42.601562l45.902343-45.601563c-2.402343-5.398437-24.601562-36.398437-24.601562-84.097656h300c0 48-22.199219 78.398438-24.597657 84.097656l45.898438 45.601563c11.699219 11.699219 11.699219 30.902343 0 42.601562zm0 0" fill="#fed2a4"/><path d="m351.375 172.300781c-11.699219 11.699219-30.898438 11.699219-42.601562 0l-45.597657-45.902343c-19.199219 8.101562 4.5 3.300781-53.101562 21.902343v62.699219c0 16.5-13.5 30-30 30v-241h150c0 48-22.199219 78.398438-24.597657 84.097656l45.898438 45.601563c11.699219 11.699219 11.699219 30.902343 0 42.601562zm0 0" fill="#ffbd86"/><path d="m15.074219 301h330v30h-330zm0 0" fill="#9ed0ff"/><path d="m180.074219 301h165v30h-165zm0 0" fill="#73bcff"/><path d="m135.074219 361h90v30h-90zm0 0" fill="#9ed0ff"/><path d="m180.074219 361h45v30h-45zm0 0" fill="#73bcff"/></svg>